<?xml version="1.0" encoding="utf-8"?>
<!-- Generator: Adobe Illustrator 23.0.3, SVG Export Plug-In . SVG Version: 6.00 Build 0)  -->
<svg version="1.1" id="Layer_1" xmlns="http://www.w3.org/2000/svg" xmlns:xlink="http://www.w3.org/1999/xlink" x="0px" y="0px"
	 viewBox="0 0 720 720" style="enable-background:new 0 0 720 720;" xml:space="preserve">
<style type="text/css">
	.st0{fill:#748491;}
	.st1{fill:#FFFFFF;}
	.st2{fill:#278EB3;}
	.st3{fill:#E95B1D;}
	.st4{fill:#29414B;}
	.st5{fill:#637480;}
	.st6{fill:#F9F9F9;}
	.st7{fill:#F8BC28;}
	.st8{fill:#F3F3F3;}
</style>
<g>
	<path class="st0" d="M720,337.4v45c-0.4,2-1,4-1.2,6c-0.3,2.8-0.1,5.6-0.4,8.4c-2.7,21.4-6.4,42.5-12.4,63.3
		c-9.1,31.4-22.3,61.1-39.5,88.9c-16.6,26.8-36.5,50.9-59.4,72.7c-26.7,25.3-56.7,46-89.7,62.1c-43.9,21.4-90.4,33-139.1,35.7
		c-22.2,1.3-44.5,0.3-66.5-2.9c-41.1-5.8-80.2-17.9-117.1-37.2c-35.6-18.6-67.2-42.4-95-71.4c-27.8-29.1-49.9-61.9-66.7-98.3
		C13.5,467.8,3.1,423.6,0.5,377.6c-1.3-22-0.2-44,2.8-65.8c5.7-40.9,17.7-79.8,36.8-116.6c18.6-35.9,42.5-67.7,71.7-95.6
		c29.4-28.1,62.5-50.6,99.5-67.4C250,14.6,290.5,4,333,1.2c1.6-0.1,3.1-0.8,4.6-1.2h45c1.8,0.4,3.5,1,5.3,1.2
		c13,1.7,26.1,2.7,38.9,5c34.7,6.4,67.8,17.9,99.1,34.3c35.4,18.5,66.8,42.2,94.4,71c28,29.2,50.3,62.2,67.1,98.9
		c17.8,38.9,28.5,79.6,31.3,122.4C718.9,334.3,719.6,335.8,720,337.4z"/>
	<path class="st1" d="M385.5,265.9c-0.2,7.6,0,15.2,0,23.6h74.5c-3.8,25.6-7.8,50.2-12,75.6c-20.6,0.7-40.9-0.1-60.9,0.4
		c-2.5,3.2-1.6,6.5-1.6,9.5c0,60.8,0,121.6,0,182.4c0,3.1-0.2,6.2-0.3,10.2c-25.4,0-50.1,0-76,0V366.2c-8.7-1.7-16.9-0.6-25-0.8
		c-8.1-0.2-16.3,0-24.2,0c-1.7-6.6-2-66.5-0.4-75.7c16.1-0.3,32.3,0.1,49-0.2c0.3-2.6,0.7-4.7,0.7-6.7c0.1-9.8-0.1-19.6,0.1-29.4
		c0.3-14.9,2.1-29.4,7.5-43.5c7.3-19.3,20.9-32,39.8-39.5c14.7-5.8,30.1-7.9,45.8-8.1c17.7-0.2,35.4-0.1,53.1,0
		c1.8,0,3.5,0.4,5.2,0.6c1.3,6.5,1.6,65.4,0.4,75.5c-2.1,0.2-4.4,0.5-6.6,0.5c-13.8,0.1-27.5,0-41.2,0
		C396.2,239.1,386,249,385.5,265.9z"/>
</g>
</svg>
