<?xml version="1.0" encoding="utf-8"?>
<!-- Generator: Adobe Illustrator 23.0.3, SVG Export Plug-In . SVG Version: 6.00 Build 0)  -->
<svg version="1.1" id="Layer_1" xmlns="http://www.w3.org/2000/svg" xmlns:xlink="http://www.w3.org/1999/xlink" x="0px" y="0px"
	 viewBox="0 0 720 720" style="enable-background:new 0 0 720 720;" xml:space="preserve">
<style type="text/css">
	.st0{fill:#748491;}
	.st1{fill:#FFFFFF;}
	.st2{fill:#278EB3;}
	.st3{fill:#E95B1D;}
	.st4{fill:#29414B;}
	.st5{fill:#637480;}
	.st6{fill:#F9F9F9;}
	.st7{fill:#F8BC28;}
	.st8{fill:#F3F3F3;}
</style>
<g>
	<path id="XMLID_1692_" class="st0" d="M360,720L360,720C161.2,720,0,558.8,0,360v0C0,161.2,161.2,0,360,0l0,0
		c198.8,0,360,161.2,360,360v0C720,558.8,558.8,720,360,720z"/>
	<g id="XMLID_1684_">
		<path id="XMLID_1689_" class="st1" d="M360,198.2c52.7,0,58.9,0.2,79.8,1.2c19.2,0.9,29.7,4.1,36.7,6.8
			c9.2,3.6,15.8,7.9,22.7,14.8c6.9,6.9,11.2,13.5,14.8,22.7c2.7,7,5.9,17.4,6.8,36.7c0.9,20.8,1.2,27.1,1.2,79.8s-0.2,58.9-1.2,79.8
			c-0.9,19.2-4.1,29.7-6.8,36.7c-3.6,9.2-7.9,15.8-14.8,22.7c-6.9,6.9-13.5,11.2-22.7,14.8c-7,2.7-17.4,5.9-36.7,6.8
			c-20.8,0.9-27,1.1-79.8,1.1c-52.7,0-58.9-0.2-79.8-1.1c-19.2-0.9-29.7-4.1-36.6-6.8c-9.2-3.6-15.8-7.9-22.7-14.8
			c-6.9-6.9-11.2-13.5-14.8-22.7c-2.7-7-5.9-17.4-6.8-36.7c-0.9-20.8-1.1-27.1-1.1-79.8s0.2-58.9,1.1-79.8
			c0.9-19.2,4.1-29.7,6.8-36.7c3.6-9.2,7.9-15.8,14.8-22.7c6.9-6.9,13.5-11.2,22.7-14.8c7-2.7,17.4-5.9,36.6-6.8
			C301.1,198.4,307.3,198.2,360,198.2 M360,162.6c-53.6,0-60.3,0.2-81.4,1.2c-21,1-35.4,4.3-47.9,9.2c-13,5-24,11.8-35,22.8
			c-11,11-17.7,22-22.8,35c-4.9,12.6-8.2,26.9-9.2,47.9c-1,21.1-1.2,27.8-1.2,81.4c0,53.6,0.2,60.3,1.2,81.4c1,21,4.3,35.4,9.2,47.9
			c5,13,11.8,24,22.8,35c11,11,22,17.7,35,22.8c12.6,4.9,26.9,8.2,47.9,9.2c21.1,1,27.8,1.2,81.4,1.2c53.6,0,60.3-0.2,81.4-1.2
			c21-1,35.4-4.3,47.9-9.2c13-5,24-11.8,35-22.8s17.7-22,22.8-35c4.9-12.6,8.2-26.9,9.2-47.9c1-21.1,1.2-27.8,1.2-81.4
			c0-53.6-0.2-60.3-1.2-81.4c-1-21-4.3-35.4-9.2-47.9c-5-13-11.8-24-22.8-35s-22-17.7-35-22.8c-12.6-4.9-26.9-8.2-47.9-9.2
			C420.3,162.8,413.6,162.6,360,162.6"/>
		<path id="XMLID_1686_" class="st1" d="M360,258.6c-56,0-101.4,45.4-101.4,101.4c0,56,45.4,101.4,101.4,101.4
			c56,0,101.4-45.4,101.4-101.4C461.4,304,416,258.6,360,258.6 M360,425.8c-36.3,0-65.8-29.5-65.8-65.8c0-36.3,29.5-65.8,65.8-65.8
			s65.8,29.5,65.8,65.8C425.8,396.3,396.3,425.8,360,425.8"/>
		<path id="XMLID_1685_" class="st1" d="M489.1,254.6c0,13.1-10.6,23.7-23.7,23.7c-13.1,0-23.7-10.6-23.7-23.7
			c0-13.1,10.6-23.7,23.7-23.7C478.4,230.9,489.1,241.6,489.1,254.6"/>
	</g>
</g>
</svg>
