<?xml version="1.0" encoding="utf-8"?>
<!-- Generator: Adobe Illustrator 23.0.3, SVG Export Plug-In . SVG Version: 6.00 Build 0)  -->
<svg version="1.1" id="Layer_1" xmlns="http://www.w3.org/2000/svg" xmlns:xlink="http://www.w3.org/1999/xlink" x="0px" y="0px"
	 viewBox="0 0 720 720" style="enable-background:new 0 0 720 720;" xml:space="preserve">
<style type="text/css">
	.st0{fill:#748491;}
	.st1{fill:#FFFFFF;}
	.st2{fill:#278EB3;}
	.st3{fill:#E95B1D;}
	.st4{fill:#29414B;}
	.st5{fill:#637480;}
	.st6{fill:#F9F9F9;}
	.st7{fill:#F8BC28;}
	.st8{fill:#F3F3F3;}
</style>
<g>
	<path id="XMLID_1713_" class="st0" d="M360,720L360,720C161.2,720,0,558.8,0,360v0C0,161.2,161.2,0,360,0l0,0
		c198.8,0,360,161.2,360,360v0C720,558.8,558.8,720,360,720z"/>
	<g id="XMLID_1708_">
		<g id="XMLID_1710_">
			<rect id="XMLID_1712_" x="196.8" y="279.8" class="st1" width="74.5" height="240.7"/>
			<path id="XMLID_1711_" class="st1" d="M233.7,248.2c24.3,0,44.1-19.9,44.1-44.4s-19.7-44.4-44.1-44.4
				c-24.3,0-44.1,19.9-44.1,44.4S209.3,248.2,233.7,248.2z"/>
		</g>
		<path id="XMLID_1709_" class="st1" d="M390.4,394.1c0-33.8,15.6-54,45.4-54c27.4,0,40.6,19.4,40.6,54c0,34.7,0,126.4,0,126.4h74.2
			c0,0,0-87.9,0-152.4c0-64.5-36.5-95.6-87.6-95.6c-51.1,0-72.5,39.8-72.5,39.8v-32.4h-71.5v240.7h71.5
			C390.4,520.4,390.4,431.2,390.4,394.1z"/>
	</g>
</g>
</svg>
