<?xml version="1.0" encoding="utf-8"?>
<!-- Generator: Adobe Illustrator 23.0.3, SVG Export Plug-In . SVG Version: 6.00 Build 0)  -->
<svg version="1.1" id="Layer_1" xmlns="http://www.w3.org/2000/svg" xmlns:xlink="http://www.w3.org/1999/xlink" x="0px" y="0px"
	 viewBox="0 0 720 720" style="enable-background:new 0 0 720 720;" xml:space="preserve">
<style type="text/css">
	.st0{fill:#748491;}
	.st1{fill:#FFFFFF;}
	.st2{fill:#278EB3;}
	.st3{fill:#E95B1D;}
	.st4{fill:#29414B;}
	.st5{fill:#637480;}
	.st6{fill:#F9F9F9;}
	.st7{fill:#F8BC28;}
	.st8{fill:#F3F3F3;}
</style>
<g>
	<circle class="st0" cx="360" cy="360" r="360"/>
	<g>
		<path class="st1" d="M376.4,153.5c2.7,0.5,5.3,1,8,1.5c28.1,4.4,53,15.8,75,33.8c15.3,12.5,27.5,27.7,37.1,44.9
			c9.2,16.5,15.1,34.2,17.8,52.8c1.9,13,1.8,26,0.5,39.1c-2.7,27.1-11.6,52.3-22.8,76.9c-12,26.2-26.5,51.1-42.6,74.8
			c-19.5,28.6-39.5,56.9-59.3,85.3c-5.9,8.5-11.8,17-17.6,25.5c-2.8,4-6,7.1-11.4,7.4c-5.9,0.3-9.8-2.4-13-7
			c-4.5-6.5-9-13-13.5-19.5c-13.3-18.9-26.8-37.7-40.1-56.7c-16.2-23.2-32-46.7-46.2-71.3c-13.4-23.4-25.4-47.4-33.7-73.1
			c-4.4-13.7-7.7-27.6-9.2-42c-2.8-28.5,1-55.9,13.1-82c6.7-14.5,15.3-27.5,25.9-39.4c13-14.6,28.3-26.1,45.6-34.9
			c16.1-8.2,33.2-13.5,51.3-15.5c0.8-0.1,1.6-0.5,2.4-0.7C354.5,153.5,365.4,153.5,376.4,153.5z M359.9,558.3c1.1-1.5,1.7-2.2,2.3-3
			c11.5-16.2,22.9-32.4,34.4-48.5c20.4-28.9,40.5-58,57.4-89.1c11.6-21.2,21.9-43,28.5-66.4c5.5-19.4,7.7-39.1,5.1-59.2
			c-3.7-28.7-16.1-53.1-36.1-73.8c-10.4-10.7-22.5-19.2-36-25.6c-26-12.5-53.4-15.8-81.4-10c-36.2,7.5-64.4,27.4-84,58.9
			c-16.9,27.1-22,56.8-17.5,88.1c3.1,21.6,10.7,42,19.8,61.8c10.6,22.9,23,44.8,37,65.6c19.6,29.1,39.9,57.7,59.8,86.5
			C352.7,548.3,356.2,553,359.9,558.3z"/>
		<path class="st1" d="M282.1,308.9c-1.5-41.8,36-78.4,78.4-78.1c41.3,0.3,77.9,36.3,77.6,78.8c-0.3,41.1-36.2,77.9-78.9,77.5
			C318,386.6,280.7,350.8,282.1,308.9z M411.3,308.7c-0.7-29.3-23.9-51.4-51.6-51.1c-29.7,0.3-51.4,24.3-51,51.6
			c0.4,29.3,23.7,50.9,51.3,50.9C389.1,360,410.9,336.8,411.3,308.7z"/>
	</g>
</g>
</svg>
