<?xml version="1.0" encoding="utf-8"?>
<!-- Generator: Adobe Illustrator 23.0.3, SVG Export Plug-In . SVG Version: 6.00 Build 0)  -->
<svg version="1.1" id="Layer_1" xmlns="http://www.w3.org/2000/svg" xmlns:xlink="http://www.w3.org/1999/xlink" x="0px" y="0px"
	 viewBox="0 0 720 720" style="enable-background:new 0 0 720 720;" xml:space="preserve">
<style type="text/css">
	.st0{fill:#748491;}
	.st1{fill:#FFFFFF;}
	.st2{fill:#278EB3;}
	.st3{fill:#E95B1D;}
	.st4{fill:#29414B;}
	.st5{fill:#637480;}
	.st6{fill:#F9F9F9;}
	.st7{fill:#F8BC28;}
	.st8{fill:#F3F3F3;}
</style>
<g>
	<circle class="st0" cx="360" cy="360" r="360"/>
	<g>
		<path class="st1" d="M565.3,234.3c0-0.7-0.7-2.1-1.4-3.4c-3.4-9.6-9.6-17.2-18.6-22c-6.2-3.4-13.1-5.5-21.4-5.5
			c-109.6,0.7-218.4,0.7-328,0.7h-4.1c-13.8,0.7-24.8,6.9-32.4,19.3c-4.1,6.2-5.5,13.1-5.5,22v232.9c0.7,13.8,7.6,25.5,19.3,32.4
			c6.2,4.1,13.1,6.2,22,6.2h332.1c15.8-0.7,31-11.7,36.5-26.9c0.7-1.4,0.7-2.8,1.4-4.1L566,237L565.3,234.3z M510.9,234.9
			l-144,130.9c-4.8,4.1-9,4.8-13.8,0.7c-9-8.3-17.9-16.5-27.6-24.8L242.2,266c-11-10.3-22-20.7-33.1-31H510.9z M185,464.4V255.6
			l114.4,104C260.1,393.4,222.2,429.2,185,464.4z M208.4,485.1c38.6-36.5,75.1-71,113.7-104.7l9.6,9c6.9,6.2,14.5,9.6,22,10.3
			c11,2.1,20.7-0.7,29.6-6.9c4.1-3.4,7.6-6.2,11-9.6l3.4-2.8c38.6,33.8,75.1,68.2,113.7,104.7H208.4z M535,464.4
			c-4.1-4.1-8.3-7.6-11.7-11c-10.3-9.6-20-18.6-29.6-28.3c-15.8-14.5-31.7-28.2-47.5-42.7l-15.8-14.5c-2.8-2.8-6.2-5.5-9.6-8.3
			L532.9,257l2.1-2.1V464.4z"/>
	</g>
</g>
</svg>
