<?xml version="1.0" encoding="utf-8"?>
<!-- Generator: Adobe Illustrator 23.0.3, SVG Export Plug-In . SVG Version: 6.00 Build 0)  -->
<svg version="1.1" id="Layer_1" xmlns="http://www.w3.org/2000/svg" xmlns:xlink="http://www.w3.org/1999/xlink" x="0px" y="0px"
	 viewBox="0 0 720 720" style="enable-background:new 0 0 720 720;" xml:space="preserve">
<style type="text/css">
	.st0{fill:#748491;}
	.st1{fill:#FFFFFF;}
	.st2{fill:#278EB3;}
	.st3{fill:#E95B1D;}
	.st4{fill:#29414B;}
	.st5{fill:#637480;}
	.st6{fill:#F9F9F9;}
	.st7{fill:#F8BC28;}
	.st8{fill:#F3F3F3;}
</style>
<g>
	<circle class="st0" cx="360" cy="360" r="360"/>
	<g>
		<g>
			<path class="st1" d="M521.8,498.6c-3-8.9-9.3-13.9-13.5-16.9c-24.5-16-48.9-32.5-73.4-48.9c-1.7-0.8-3.4-2.1-5.5-3
				c-4.6-2.5-10.1-3.8-15.2-3.4c-9.7,0.4-17.3,5.1-24.5,13.9c-2.5,3-5.1,6.3-7.6,9.7l-7.6,10.1c-1.7,2.1-3.4,4.6-5.5,6.8l-3,0.4
				c-4.2-2.5-8.4-5.1-12.7-7.6c-13.1-7.6-25.7-16.9-39.7-30c-8.9-8.9-18.1-17.7-26.6-26.6c-8-8.4-15.6-17.3-23.2-26.2
				c-7.2-8.9-13.5-19.4-21.1-33.8l0.8-2.1l1.7-1.7l15.6-12.2c4.2-3.4,8.4-6.8,12.7-10.1c7.2-5.9,10.5-14.3,10.1-24.9
				c-0.4-6.8-3.4-11.8-6.3-16.9l-13.1-19c-11.4-17.3-22.8-34.2-33.8-51.5c-4.6-6.8-10.5-14.3-21.1-17.3l-12.7-0.4l-2.5,0.4
				c-5.9,2.1-10.5,5.1-15.2,7.6l-4.6,3c-7.2,4.2-13.9,8.4-21.1,12.7c-12.7,8-20.7,19-24.1,32.9c-0.8,3-1.3,6.3-2.1,10.1l-0.8,5.1
				l-0.4,27.9l0.4,2.1c0.8,11.8,3.8,23.2,6.8,32.9c5.5,18.1,13.9,36.3,26.6,57c8,13.5,17.7,27.4,30.4,43
				c10.5,13.1,20.7,24.9,30.8,35.9c18.6,19.4,34.6,35,50.6,48.5c19,16.5,35.4,29.1,52.3,39.7c15.2,9.7,30,17.7,44.7,24.1
				c19.8,8.4,38,13.1,55.7,14.3c4.2,0.4,8,0.8,11.8,0.8c11.4,0,21.5-1.7,31.2-4.2c13.5-3.8,24.1-11.4,31.2-22.8
				c5.1-8,10.1-16.5,14.8-24.5l5.5-9.3C523.9,516.3,524.7,507.4,521.8,498.6z M154.7,264.4c0.4-6.8,1.7-12.2,3.4-16.9
				c2.1-5.1,5.1-8.4,8.4-10.5c11.4-7.2,23.2-14.3,34.6-21.1c1.3-0.8,2.5,0.4,3,1.3l49.4,74.3c0.4,0.4,1.3,2.1,1.3,2.5
				c0.4,1.7,0,2.1-0.8,3l-27,20.7c-7.2,5.5-11.4,12.2-12.7,21.1c-0.8,5.9,0,11.8,3,17.3c7.6,14.8,15.2,27,23.6,37.6
				c15.2,20.3,32.9,38,49.8,54c13.9,13.1,26.2,23.2,38.4,31.2c8,5.1,16.5,9.7,24.9,14.3c12.7,6.8,29.1,3,38-8.9
				c5.1-6.8,10.5-13.5,15.6-19.8l5.5-7.2c1.7-2.5,3-2.5,5.1-0.8c25.3,16.5,50.2,33.3,75.1,49.8c1.7,1.3,1.7,2.1,0.8,4.2
				c-6.8,11-13.5,21.9-20.3,32.9c-3,4.6-7.6,8-14.3,10.1c-7.2,1.7-14.8,2.5-21.9,2.5H437c-17.7,0-35.9-3.8-57.4-12.2
				c-22.8-10.1-45.6-24.1-71.3-44.3c-9.7-7.6-19-16-28.3-24.5c-8.9-8-17.7-16-26.2-24.5c-11.4-12.2-26.6-28.3-40.5-45.6
				c-14.8-18.1-25.7-34.6-35-50.6c-10.5-19-17.3-36.7-21.5-54.4C154.3,289.3,153.8,277.5,154.7,264.4z"/>
		</g>
		<g>
			<path class="st1" d="M570.5,363.5c-1.5,8.7-7.3,13.6-15.5,13.6H553c-5.8-0.5-13.1-3.4-14.5-16l-0.5-5.8
				c-0.5-9.2-1.5-18.4-2.9-27.1c-4.8-27.1-15.5-52.3-32-74.6c-12.6-16.9-27.6-32-45-43.6c-22.8-15.5-47.4-25.2-72.6-29.1
				c-7.7-1-15-1.5-22.3-1.9l-5.8-0.5c-4.8-0.5-10.7-1.5-14.5-6.8c-3.4-4.8-4.4-10.6-1.9-16c1.9-5.3,6.8-8.7,12.6-9.7h8.7
				c25.7,1.5,47.4,5.8,67.8,13.6c21.8,8.2,42.6,19.4,60.5,33.9c18.9,15.5,35.3,34.4,48.9,56.2c13.6,21.8,22.3,45.5,27.1,70.2
				c1.5,7.7,1.9,15.5,2.9,23.2l0.5,7.7C570.5,355.7,570.9,359.6,570.5,363.5z"/>
		</g>
		<g>
			<path class="st1" d="M504.6,359.1h-0.5c0,1.5,0,2.4-0.5,3.9c-0.5,7.3-5.3,13.1-13.1,14h-2.4c-6.8,0-13.1-3.9-15-10.6
				c-1-2.9-1.5-6.8-1.5-10.7c-3.4-46.5-26.6-80.4-69.7-101.2c-12.6-6.3-27.6-9.7-43.6-9.7c-6.3,0-11.6-1.9-15-5.8
				c-2.9-2.9-3.9-6.3-3.9-10.7c0-4.4,1.5-8.2,4.4-11.1c3.9-3.4,8.7-4.8,15-4.8c32,1.5,60.5,11.1,84.2,29
				c33.4,24.7,53.7,58.1,59.6,98.8c0.5,3.4,1,6.8,1,10.7L504.6,359.1z"/>
		</g>
		<g>
			<path class="st1" d="M438.3,362.5h-0.5v0.5c-1,7.7-6.8,13.6-14,14h-1.9c-7.3,0-13.1-3.9-15-11.1c-1-2.9-1.5-5.3-1.5-8.2
				c-1.5-21.3-16.9-39.7-38.2-45c-2.4-0.5-5.3-1-7.7-1.5c-1.5,0-2.9,0-3.9-0.5c-10.2-1-16.9-8.2-16-16.9c0.5-8.7,8.2-15,17.4-15h1.5
				c21.3,1.5,38.7,8.7,52.8,21.8c14,13.6,23.2,30,26.1,49.9c0.5,1.5,0.5,3.4,0.5,4.8L438.3,362.5z"/>
		</g>
	</g>
</g>
</svg>
