<?xml version="1.0" encoding="utf-8"?>
<!-- Generator: Adobe Illustrator 23.0.3, SVG Export Plug-In . SVG Version: 6.00 Build 0)  -->
<svg version="1.1" id="Layer_1" xmlns="http://www.w3.org/2000/svg" xmlns:xlink="http://www.w3.org/1999/xlink" x="0px" y="0px"
	 viewBox="0 0 720 720" style="enable-background:new 0 0 720 720;" xml:space="preserve">
<style type="text/css">
	.st0{fill:#748491;}
	.st1{fill:#FFFFFF;}
	.st2{fill:#278EB3;}
	.st3{fill:#E95B1D;}
	.st4{fill:#29414B;}
	.st5{fill:#637480;}
	.st6{fill:#F9F9F9;}
	.st7{fill:#F8BC28;}
	.st8{fill:#F3F3F3;}
</style>
<g>
	<path id="XMLID_1725_" class="st0" d="M360,720L360,720C161.2,720,0,558.8,0,360v0C0,161.2,161.2,0,360,0l0,0
		c198.8,0,360,161.2,360,360v0C720,558.8,558.8,720,360,720z"/>
	<path id="XMLID_1724_" class="st1" d="M178.2,491.5c34.8,22.3,76.2,35.4,120.6,35.4c146.1,0,228.7-123.4,223.7-234.1
		c15.4-11.1,28.7-24.9,39.3-40.7c-14.1,6.3-29.3,10.5-45.2,12.4c16.2-9.7,28.7-25.1,34.6-43.5c-15.2,9-32.1,15.6-50,19.1
		c-14.4-15.3-34.8-24.8-57.5-24.8c-50.8,0-88.1,47.4-76.7,96.6c-65.4-3.3-123.4-34.6-162.2-82.2c-20.6,35.4-10.7,81.7,24.4,105.1
		c-12.9-0.4-25.1-4-35.7-9.9c-0.8,36.5,25.3,70.6,63.1,78.2c-11.1,3-23.2,3.7-35.5,1.3c10,31.3,39.1,54,73.5,54.7
		C261.6,484.9,219.9,496.4,178.2,491.5z"/>
</g>
</svg>
