<?xml version="1.0" encoding="utf-8"?>
<!-- Generator: Adobe Illustrator 23.0.3, SVG Export Plug-In . SVG Version: 6.00 Build 0)  -->
<svg version="1.1" id="Layer_1" xmlns="http://www.w3.org/2000/svg" xmlns:xlink="http://www.w3.org/1999/xlink" x="0px" y="0px"
	 viewBox="0 0 720 720" style="enable-background:new 0 0 720 720;" xml:space="preserve">
<style type="text/css">
	.st0{fill:#748491;}
	.st1{fill:#FFFFFF;}
	.st2{fill:#278EB3;}
	.st3{fill:#E95B1D;}
	.st4{fill:#29414B;}
	.st5{fill:#637480;}
	.st6{fill:#F9F9F9;}
	.st7{fill:#F8BC28;}
	.st8{fill:#F3F3F3;}
</style>
<g>
	<circle class="st0" cx="360" cy="360" r="360"/>
	<path class="st1" d="M579.2,436.4c8.4-23.9,12.9-49.6,12.9-76.4c0-26.7-4.6-52.4-12.9-76.4c-0.2-0.7-0.4-1.4-0.7-2.1
		C546.3,192,460.5,127.8,360,127.8c-100.5,0-186.3,64.2-218.5,153.7c-0.3,0.7-0.5,1.4-0.7,2.1c-8.4,23.9-12.9,49.6-12.9,76.4
		c0,26.7,4.6,52.5,12.9,76.4c0.2,0.7,0.4,1.4,0.7,2.1c32.3,89.5,118,153.7,218.5,153.7c100.5,0,186.3-64.2,218.5-153.7
		C578.8,437.8,579,437.1,579.2,436.4L579.2,436.4z M360,558.9c-8.8,0-23.1-16-35-51.7c-5.8-17.2-10.3-37.1-13.7-58.7h97.4
		c-3.3,21.6-8,41.4-13.7,58.7C383.1,542.9,368.8,558.9,360,558.9L360,558.9z M307.2,415.2c-1.6-17.7-2.4-36.3-2.4-55.2
		c0-18.9,0.8-37.5,2.4-55.2h105.5c1.6,17.7,2.4,36.2,2.4,55.2c0,18.9-0.8,37.5-2.4,55.2H307.2z M161.1,360c0-19.1,2.7-37.7,7.8-55.2
		h104.9c-1.6,18.1-2.3,36.7-2.3,55.2c0,18.5,0.8,37.1,2.3,55.2H168.9C163.8,397.7,161.1,379.1,161.1,360L161.1,360z M360,161.1
		c8.8,0,23.1,16,35,51.7c5.8,17.2,10.4,37.1,13.7,58.7h-97.4c3.3-21.6,8-41.4,13.7-58.7C336.9,177.1,351.2,161.1,360,161.1
		L360,161.1z M446.1,304.8h104.9c5.1,17.5,7.8,36.1,7.8,55.2c0,19.2-2.7,37.7-7.8,55.2H446.1c1.6-18.1,2.3-36.7,2.3-55.2
		C448.5,341.5,447.7,322.9,446.1,304.8L446.1,304.8z M538.1,271.5h-95.8c-5.9-40.8-16.1-77.4-30.3-103.5
		C467.2,183,513,221.2,538.1,271.5L538.1,271.5z M308,168c-14.2,26.1-24.4,62.7-30.3,103.5h-95.8C207,221.2,252.8,183,308,168
		L308,168z M181.9,448.5h95.8c5.9,40.8,16.1,77.4,30.3,103.5C252.8,537,207,498.8,181.9,448.5L181.9,448.5z M412,552
		c14.2-26.1,24.4-62.7,30.3-103.5h95.8C513,498.8,467.2,537,412,552L412,552z M412,552"/>
</g>
</svg>
