<?xml version="1.0" encoding="utf-8"?>
<!-- Generator: Adobe Illustrator 23.0.3, SVG Export Plug-In . SVG Version: 6.00 Build 0)  -->
<svg version="1.1" id="Layer_1" xmlns="http://www.w3.org/2000/svg" xmlns:xlink="http://www.w3.org/1999/xlink" x="0px" y="0px"
	 viewBox="0 0 720 720" style="enable-background:new 0 0 720 720;" xml:space="preserve">
<style type="text/css">
	.st0{fill:#748491;}
	.st1{fill:#FFFFFF;}
	.st2{fill:#278EB3;}
	.st3{fill:#E95B1D;}
	.st4{fill:#29414B;}
	.st5{fill:#637480;}
	.st6{fill:#F9F9F9;}
	.st7{fill:#F8BC28;}
	.st8{fill:#F3F3F3;}
</style>
<g>
	<path class="st0" d="M720,330.7v59c-0.3,1.1-0.9,2.2-1,3.3c-1.1,9.3-1.7,18.6-3.3,27.8c-5.3,30.3-14,59.6-26.8,87.6
		C667,555.7,637,597,597.5,631.3c-17.9,15.6-37,29.4-57.5,41.2c-41.6,24-86.1,39.3-133.9,45.1c-5.5,0.7-11,1.6-16.5,2.4h-59
		c-1.6-0.4-3.1-0.9-4.7-1.1c-6-0.7-12.1-0.9-18.1-1.9c-30.8-5-60.8-13-89.5-25.5c-49.3-21.4-91.9-51.9-127.6-92.2
		c-16.4-18.5-30.7-38.3-43.1-59.6c-15.8-27.3-27.8-56.2-35.9-86.6c-8-30-12.4-60.4-11.8-91.5c0.2-11.4,0.8-22.9,1.4-34.3
		c0.7-15,3.4-29.7,6.6-44.3c7.3-33.9,19.5-65.9,36.1-96.3c14.1-25.8,31.3-49.4,51.2-71c11.5-12.6,24.1-24.2,37.4-35
		c28.4-23,59.4-41.6,93.4-55.1C268.9,8.6,313.3-0.2,359.6,0c20.9,0.1,41.6,1.3,62.1,5c28,4.9,55,13,81.1,24.3
		c37.6,16.2,71.3,38.2,101.4,65.8c27.3,25,50.1,53.7,68.5,85.8c23.8,41.5,39.1,85.9,44.8,133.4C718.2,319.8,719.1,325.2,720,330.7z"
		/>
	<g>
		<path class="st1" d="M580.2,323.9c-3.6-27.4-12.6-53.2-26.7-77.1c-21.8-37.1-51.9-65.4-90.3-84.8c-25.6-12.9-52.9-19.9-81.4-21.8
			c-15.6-1.1-31.3-0.2-46.9,2.3c-32,4.9-61.5,16.4-88,34.8c-35.3,24.4-61.5,56.5-77.9,96.4c-8,19.4-13.2,39.6-14.8,60.4
			c-1.5,19.3-1.3,38.8,2.3,58c4.1,22,10.9,43.1,21.7,62.7c2.9,5.3,3.2,9.7,1.7,15.1c-8.9,32-17.6,64-26.3,96.1
			c-0.5,1.7-0.7,3.5-1.3,6.3c2.2-0.5,3.1-0.7,3.9-0.9c33.9-8.8,67.9-17.6,101.8-26.7c5-1.3,8.8-0.9,13.3,1.4
			c30.3,15.7,62.8,22.6,96.6,23.2c9.8,0.2,19.6-1.3,29.3-2.4c23-2.6,44.8-9.5,65.5-19.8c30.5-15.2,56.3-36.2,76.6-63.5
			C574.5,435.9,587.9,382.4,580.2,323.9z M509.1,465c-27.7,35.2-63.8,57.1-107.8,65.9c-11.1,2.2-22.3,3.3-33.4,3.2
			c-19.9-0.1-39.5-3.2-58.5-9.9c-12.2-4.3-23.9-9.6-34.9-16.4c-3.4-2.1-6.2-2.2-9.8-1.2c-17.6,4.8-35.2,9.4-52.9,14
			c-1.6,0.4-3.2,0.9-4.8,1.2c-3.7,0.7-5-0.5-4-4.1c2.8-10.6,5.8-21.2,8.7-31.8c2.2-8.1,4.2-16.3,6.8-24.3c1.2-3.8,0.6-6.6-1.5-9.8
			c-11.6-17.8-19.7-37.2-24.4-57.9c-4.5-20.3-5.2-40.7-2.9-61.3c2.4-21.4,8.7-41.7,18.7-60.6c12-22.8,28-42.5,48.4-58.5
			c25.5-20,54.2-32.2,86.1-36.9c13.3-2,26.9-2.2,40.5-1c26.1,2.4,50.4,10,73.1,22.7c17.3,9.7,32.4,22,45.6,36.9
			c10.8,12.2,20,25.4,27,40c8.9,18.4,15.1,37.8,16.9,58.3c0.6,7,1.2,14,1.5,17.7C547.1,395.6,534.6,432.6,509.1,465z"/>
		<path class="st1" d="M476.5,412.2c-1.3,14.6-5.7,27.1-19.3,35.3c-10.4,6.1-21,10.1-33,9.5c-7.7,0.5-14.9-1.2-22.1-3.4
			c-20.9-6.5-40.9-14.7-58.9-27.5c-22.4-15.9-41-35.4-57.3-57.3c-7.8-10.6-15.1-21.4-20.3-33.5c-6.8-15.8-8.8-31.9-3.5-48.5
			c3.5-11,10.2-19.9,18.8-27.4c3.3-2.9,7.6-3.7,11.8-3.8c4.4-0.1,8.9,0.4,13.2,1.1c4.2,0.7,5.8,4.4,7.3,7.9c3.4,8,6.6,16,9.9,24
			c2.1,5,3.9,10,6.3,14.9c2.4,5,1.7,9.5-1.4,13.8c-3.9,5.3-7.6,10.6-11.8,15.7c-3.3,4.1-3.3,7.8-0.7,12.2
			c17.5,29,41.4,50.4,73.1,62.9c6.5,2.6,9.1,2,13.4-3.3c4.7-5.8,9.4-11.6,14.1-17.5c4.8-6.1,7.1-7,14.4-3.7
			c9.2,4,18.2,8.5,27.3,12.8c4.4,2.1,8.8,4.4,13.2,6.6C475.1,404.5,476.9,407.6,476.5,412.2z"/>
	</g>
</g>
</svg>
