<?xml version="1.0" encoding="utf-8"?>
<!-- Generator: Adobe Illustrator 23.0.3, SVG Export Plug-In . SVG Version: 6.00 Build 0)  -->
<svg version="1.1" id="Layer_1" xmlns="http://www.w3.org/2000/svg" xmlns:xlink="http://www.w3.org/1999/xlink" x="0px" y="0px"
	 viewBox="0 0 720 720" style="enable-background:new 0 0 720 720;" xml:space="preserve">
<style type="text/css">
	.st0{fill:#748491;}
	.st1{fill:#FFFFFF;}
	.st2{fill:#278EB3;}
	.st3{fill:#E95B1D;}
	.st4{fill:#29414B;}
	.st5{fill:#637480;}
	.st6{fill:#F9F9F9;}
	.st7{fill:#F8BC28;}
	.st8{fill:#F3F3F3;}
</style>
<g>
	<path class="st0" d="M719.9,333v53.4c-0.4,1.8-0.8,3.6-1.1,5.4c-1.1,9-1.8,18.2-3.3,27.1c-9.4,54.8-29.6,105.3-62.6,150.2
		C585.4,660.8,494.4,711,380.8,719.2c-40.9,2.9-81.3-1.9-120.7-13.6c-86.7-25.9-154.7-77-203.7-152.9
		C24.5,503.2,6.4,448.9,1.5,390.2c-2.8-32.9-1.3-65.5,4.9-97.8c12.1-62.9,38.8-119,80.9-167.3C148,55.3,224.4,14.2,316.3,2.3
		c5.3-0.7,10.6-1.5,15.8-2.3h56.2c1.1,0.3,2.2,0.9,3.3,1c7.6,1,15.3,1.6,23,2.8C463.6,11,509,28,550.9,54.2
		c42.8,26.8,78.5,61.2,107,102.9c32.6,47.8,52.5,100.4,59.5,157.9C718.2,321,719.1,327,719.9,333z"/>
	<path class="st1" d="M581.8,297.4c-0.9-14-2.9-27.9-5.7-41.6c-5.1-24.7-22.2-41-47.1-44.7c-18-2.7-36.2-4.6-54.4-5.4
		c-38.3-1.7-76.7-2.5-120.5-3.8c-40.3,1.5-85.9,3-131.5,5.1c-11.2,0.5-22.4,2-33.4,4.1c-22.4,4.4-37,18.2-43.6,40
		c-2,6.4-3.2,13.2-4.1,19.9c-3.9,28.6-5.1,57.3-5.5,86.1c-0.2,13.1,0.6,26.2,1.1,39.3c0.7,20.3,2.4,40.6,5.8,60.7
		c5.1,30,21.1,46.6,51.2,51.4c17.3,2.8,34.8,4.2,52.3,5.1c29.7,1.5,59.4,2.4,89.1,2.8c54.1,0.8,108.1-0.7,162.1-4.1
		c11.4-0.7,22.9-2,34.1-4.2c22.4-4.5,37-18.1,43.4-40.1c1.8-6.3,3-12.8,3.9-19.2c3.8-26.9,5.3-54.1,5.4-81.2
		C584.4,344.1,583.3,320.7,581.8,297.4z M315.4,427.6V291.8c39.4,22.6,78,44.8,117.8,67.9C393.4,382.8,354.8,404.9,315.4,427.6z"/>
</g>
</svg>
