<svg xmlns="http://www.w3.org/2000/svg" xmlns:xlink="http://www.w3.org/1999/xlink" width="1312" height="298" viewBox="0 0 1312 298">
  <defs>
    <clipPath id="clip-PRAYOG_WEBSITE_ABOUT_3P">
      <rect width="1312" height="298"/>
    </clipPath>
  </defs>
  <g id="PRAYOG_WEBSITE_ABOUT_3P" clip-path="url(#clip-PRAYOG_WEBSITE_ABOUT_3P)">
    <rect width="1312" height="298" fill="#f9f9f9"/>
    <path id="Path_585" data-name="Path 585" d="M114.575,0A114.575,114.575,0,1,1,0,114.575,114.575,114.575,0,0,1,114.575,0Z" transform="translate(293.705 216.331) rotate(160)" fill="#f3f3f3" opacity="0.7"/>
    <path id="Path_596" data-name="Path 596" d="M114.575,0A114.575,114.575,0,1,1,0,114.575,114.575,114.575,0,0,1,114.575,0Z" transform="translate(801.705 216.331) rotate(160)" fill="#f3f3f3" opacity="0.7"/>
    <path id="Path_597" data-name="Path 597" d="M114.575,0A114.575,114.575,0,1,1,0,114.575,114.575,114.575,0,0,1,114.575,0Z" transform="translate(1318.705 216.331) rotate(160)" fill="#f3f3f3" opacity="0.7"/>
    <text id="PRODUCT" transform="translate(72 169)" fill="#29414b" font-size="30" font-family="Mulish-ExtraBold, Mulish" font-weight="800"><tspan x="0" y="0">PRODUCT</tspan></text>
    <text id="PROCESS" transform="translate(584 169)" fill="#29414b" font-size="30" font-family="Mulish-ExtraBold, Mulish" font-weight="800"><tspan x="0" y="0">PROCESS</tspan></text>
    <text id="POLICY" transform="translate(1116 169)" fill="#29414b" font-size="30" font-family="Mulish-ExtraBold, Mulish" font-weight="800"><tspan x="0" y="0">POLICY</tspan></text>
    <path id="Path_245" data-name="Path 245" d="M46.5,75.22A131.094,131.094,0,0,1,0,0" transform="matrix(-0.996, 0.087, -0.087, -0.996, 273.008, 110.435)" fill="none" stroke="#37454f" stroke-linecap="round" stroke-miterlimit="10" stroke-width="1.05"/>
    <path id="Path_246" data-name="Path 246" d="M0,2.017a131.117,131.117,0,1,1,23.037,260.2" transform="matrix(-0.996, 0.087, -0.087, -0.996, 181.982, 277.384)" fill="none" stroke="#37454f" stroke-linecap="round" stroke-miterlimit="10" stroke-width="1.05"/>
    <path id="Path_247" data-name="Path 247" d="M7,3.5A3.5,3.5,0,1,1,3.5,0,3.5,3.5,0,0,1,7,3.5Z" transform="matrix(-0.996, 0.087, -0.087, -0.996, 139.989, 21.356)" fill="#37454f"/>
    <g id="Group_400" data-name="Group 400" transform="translate(557.504 -40.401) rotate(8)">
      <path id="Path_241" data-name="Path 241" d="M44,227.2A129.8,129.8,0,0,1,129.8,0" transform="translate(186.037 347.124) rotate(-155)" fill="none" stroke="#37454f" stroke-linecap="round" stroke-miterlimit="10" stroke-width="1.05"/>
      <path id="Path_242" data-name="Path 242" d="M173.4,0c.658,28.908-7.024,77.633-58.737,110.961S11.045,129.8,0,123.89" transform="translate(162.77 193.059) rotate(-155)" fill="none" stroke="#37454f" stroke-linecap="round" stroke-miterlimit="10" stroke-width="1.05"/>
      <ellipse id="Ellipse_24" data-name="Ellipse 24" cx="4.228" cy="4.228" rx="4.228" ry="4.228" transform="translate(70.446 297.889) rotate(-155)" fill="#37454f"/>
      <path id="Path_244" data-name="Path 244" d="M8.457,4.228A4.228,4.228,0,1,1,4.228,0,4.228,4.228,0,0,1,8.457,4.228Z" transform="translate(7.665 125.398) rotate(-155)" fill="#37454f"/>
    </g>
    <g id="Group_408" data-name="Group 408" transform="translate(-341.087 -1841.087)">
      <path id="Path_593" data-name="Path 593" d="M49.27,79.7A138.9,138.9,0,0,1,0,0" transform="matrix(0.208, 0.978, -0.978, 0.208, 1468.31, 1867.833)" fill="none" stroke="#37454f" stroke-linecap="round" stroke-miterlimit="10" stroke-width="1.05"/>
      <g id="Group_401" data-name="Group 401" transform="translate(1552.196 1805.62) rotate(45)">
        <path id="Path_240" data-name="Path 240" d="M222.258,122.668A127.057,127.057,0,0,1,0,38.527,126.986,126.986,0,0,1,5.946,0" transform="translate(201.434 243.998) rotate(-155)" fill="none" stroke="#37454f" stroke-linecap="round" stroke-miterlimit="10" stroke-width="1.05"/>
        <ellipse id="Ellipse_23" data-name="Ellipse 23" cx="3.995" cy="3.995" rx="3.995" ry="3.995" transform="translate(198.079 246.842) rotate(-155)" fill="#37454f"/>
      </g>
    </g>
    <path id="Path_589" data-name="Path 589" d="M29.8,3.671,3.671,0,0,26.126,26.126,29.8Z" transform="matrix(-0.857, -0.515, 0.515, -0.857, 578.756, 241.508)" fill="#e95b1d"/>
    <path id="Path_590" data-name="Path 590" d="M29.663,21.825A15.5,15.5,0,1,0,9.188,29.663a15.5,15.5,0,0,0,20.475-7.838" transform="translate(1124.392 250.222) rotate(-177)" fill="#f8bc28"/>
    <path id="Path_592" data-name="Path 592" d="M10.711,0,49.617,10.711,0,38.906Z" transform="matrix(-0.839, 0.545, -0.545, -0.839, 253.591, 237.506)" fill="#278eb3"/>
  </g>
</svg>
